<?xml version="1.0" encoding="UTF-8" standalone="no"?><svg xmlns="http://www.w3.org/2000/svg" xmlns:xlink="http://www.w3.org/1999/xlink" contentScriptType="application/ecmascript" contentStyleType="text/css" height="291px" preserveAspectRatio="none" style="width:503px;height:291px;background:#FFFFFF;" version="1.1" viewBox="0 0 503 291" width="503px" zoomAndPan="magnify"><defs><filter height="300%" id="fv1n3hyuo528h" width="300%" x="-1" y="-1"><feGaussianBlur result="blurOut" stdDeviation="2.0"/><feColorMatrix in="blurOut" result="blurOut2" type="matrix" values="0 0 0 0 0 0 0 0 0 0 0 0 0 0 0 0 0 0 .4 0"/><feOffset dx="4.0" dy="4.0" in="blurOut2" result="blurOut3"/><feBlend in="SourceGraphic" in2="blurOut3" mode="normal"/></filter></defs><g><line style="stroke:#A80036;stroke-width:1.0;stroke-dasharray:5.0,5.0;" x1="50" x2="50" y1="40.2969" y2="248.0938"/><line style="stroke:#A80036;stroke-width:1.0;stroke-dasharray:5.0,5.0;" x1="204" x2="204" y1="40.2969" y2="248.0938"/><line style="stroke:#A80036;stroke-width:1.0;stroke-dasharray:5.0,5.0;" x1="415" x2="415" y1="40.2969" y2="248.0938"/><rect fill="#FEFECE" filter="url(#fv1n3hyuo528h)" height="30.2969" style="stroke:#A80036;stroke-width:1.5;" width="86" x="5" y="5"/><text fill="#000000" font-family="sans-serif" font-size="14" lengthAdjust="spacing" textLength="72" x="12" y="24.9951">Consumer</text><rect fill="#FEFECE" filter="url(#fv1n3hyuo528h)" height="30.2969" style="stroke:#A80036;stroke-width:1.5;" width="86" x="5" y="247.0938"/><text fill="#000000" font-family="sans-serif" font-size="14" lengthAdjust="spacing" textLength="72" x="12" y="267.0889">Consumer</text><rect fill="#FEFECE" filter="url(#fv1n3hyuo528h)" height="30.2969" style="stroke:#A80036;stroke-width:1.5;" width="80" x="162" y="5"/><text fill="#000000" font-family="sans-serif" font-size="14" lengthAdjust="spacing" textLength="66" x="169" y="24.9951">Web Site</text><rect fill="#FEFECE" filter="url(#fv1n3hyuo528h)" height="30.2969" style="stroke:#A80036;stroke-width:1.5;" width="80" x="162" y="247.0938"/><text fill="#000000" font-family="sans-serif" font-size="14" lengthAdjust="spacing" textLength="66" x="169" y="267.0889">Web Site</text><rect fill="#FEFECE" filter="url(#fv1n3hyuo528h)" height="30.2969" style="stroke:#A80036;stroke-width:1.5;" width="152" x="337" y="5"/><text fill="#000000" font-family="sans-serif" font-size="14" lengthAdjust="spacing" textLength="138" x="344" y="24.9951">EasyCard Checkout</text><rect fill="#FEFECE" filter="url(#fv1n3hyuo528h)" height="30.2969" style="stroke:#A80036;stroke-width:1.5;" width="152" x="337" y="247.0938"/><text fill="#000000" font-family="sans-serif" font-size="14" lengthAdjust="spacing" textLength="138" x="344" y="267.0889">EasyCard Checkout</text><polygon fill="#A80036" points="192,67.4297,202,71.4297,192,75.4297,196,71.4297" style="stroke:#A80036;stroke-width:1.0;"/><line style="stroke:#A80036;stroke-width:1.0;" x1="50" x2="198" y1="71.4297" y2="71.4297"/><text fill="#000000" font-family="sans-serif" font-size="13" lengthAdjust="spacing" textLength="92" x="57" y="66.3638">start payment</text><polygon fill="#A80036" points="403,96.5625,413,100.5625,403,104.5625,407,100.5625" style="stroke:#A80036;stroke-width:1.0;"/><line style="stroke:#A80036;stroke-width:1.0;" x1="204" x2="409" y1="100.5625" y2="100.5625"/><text fill="#000000" font-family="sans-serif" font-size="13" lengthAdjust="spacing" textLength="151" x="211" y="95.4966">open using query string</text><polygon fill="#A80036" points="403,125.6953,413,129.6953,403,133.6953,407,129.6953" style="stroke:#A80036;stroke-width:1.0;"/><line style="stroke:#A80036;stroke-width:1.0;" x1="50" x2="409" y1="129.6953" y2="129.6953"/><text fill="#000000" font-family="sans-serif" font-size="13" lengthAdjust="spacing" textLength="132" x="57" y="124.6294">fill credit card details</text><polygon fill="#A80036" points="215,154.8281,205,158.8281,215,162.8281,211,158.8281" style="stroke:#A80036;stroke-width:1.0;"/><line style="stroke:#A80036;stroke-width:1.0;" x1="209" x2="414" y1="158.8281" y2="158.8281"/><text fill="#000000" font-family="sans-serif" font-size="13" lengthAdjust="spacing" textLength="187" x="221" y="153.7622">redirect to confirmation page</text><line style="stroke:#A80036;stroke-width:1.0;" x1="204" x2="246" y1="187.9609" y2="187.9609"/><line style="stroke:#A80036;stroke-width:1.0;" x1="246" x2="246" y1="187.9609" y2="200.9609"/><line style="stroke:#A80036;stroke-width:1.0;" x1="205" x2="246" y1="200.9609" y2="200.9609"/><polygon fill="#A80036" points="215,196.9609,205,200.9609,215,204.9609,211,200.9609" style="stroke:#A80036;stroke-width:1.0;"/><text fill="#000000" font-family="sans-serif" font-size="13" lengthAdjust="spacing" textLength="155" x="211" y="182.895">store transaction details</text><polygon fill="#A80036" points="61,226.0938,51,230.0938,61,234.0938,57,230.0938" style="stroke:#A80036;stroke-width:1.0;"/><line style="stroke:#A80036;stroke-width:1.0;" x1="55" x2="203" y1="230.0938" y2="230.0938"/><text fill="#000000" font-family="sans-serif" font-size="13" lengthAdjust="spacing" textLength="130" x="67" y="225.0278">payment completed</text><!--MD5=[8232cc687416912f611afda140faa032]
@startuml
participant "Consumer" as consumer
participant "Web Site" as website
participant "EasyCard Checkout" as checkout

consumer->website: start payment
website->checkout : open using query string
consumer->checkout : fill credit card details
checkout->website: redirect to confirmation page
website->website: store transaction details
website->consumer: payment completed
@enduml

PlantUML version 1.2021.15(Tue Nov 30 16:45:34 UTC 2021)
(GPL source distribution)
Java Runtime: Java(TM) SE Runtime Environment
JVM: Java HotSpot(TM) 64-Bit Server VM
Default Encoding: UTF-8
Language: en
Country: US
--></g></svg>